<svg xmlns="http://www.w3.org/2000/svg" width="144" height="144" viewBox="0 0 100 100">
  <path
    d="M0 5C0 2.23858 2.23858 0 5 0H95C97.7614 0 100 2.23858 100 5V95C100 97.7614 97.7614 100 95 100H5C2.23858 100 0 97.7614 0 95V5Z"
    fill="#3F51B5" />
  <path
    d="M42.384 38V44.912H36.12V65H27.48V44.912H21.216V38H42.384ZM53.2059 51.896L52.7019 65H43.6659L45.3219 38H56.5899L59.9379 51.752H60.2619L63.6099 38H74.9139L76.5339 65H67.4979L66.9939 51.896H66.7059L63.3939 65H56.8059L53.4579 51.896H53.2059Z"
    fill="#D9D9D9" />
  <g clip-path="url(#clip0_1_6)">
    <path
      d="M81.3988 6.29513C82.035 5.65889 83.0606 5.65648 83.6939 6.28973L92.8528 15.4486C93.486 16.0819 93.4836 17.1075 92.8474 17.7437C92.2111 18.38 91.1855 18.3824 90.5523 17.7491L89.4968 16.6937L84.5776 22.4287C85.1752 24.4571 85.0158 26.6916 84.0178 28.677L83.9457 28.8207C83.7115 29.291 83.2661 29.6148 82.753 29.6985C82.24 29.7822 81.7133 29.6148 81.3448 29.2463L69.8962 17.7977C69.5277 17.4292 69.3603 16.9096 69.444 16.3895C69.5277 15.8693 69.8551 15.4274 70.3219 15.1968L70.4655 15.1247C72.4509 14.1267 74.6855 13.9673 76.7138 14.565L82.4488 9.64567L81.3934 8.59025C80.7601 7.957 80.7625 6.93136 81.3988 6.29513ZM73.3253 23.5274L75.6151 25.8172L72.1643 29.2679C71.528 29.9042 70.5024 29.9066 69.8692 29.2733C69.2359 28.6401 69.2383 27.6145 69.8746 26.9782L73.3253 23.5274Z"
      fill="#D9D9D9" />
  </g>
  <defs>
    <clipPath id="clip0_1_6">
      <rect x="81.4042" y="4" width="19.4289" height="26.0274" rx="5"
        transform="rotate(45 81.4042 4)" fill="white" />
    </clipPath>
  </defs>
</svg>
